<?xml version="1.0" encoding="UTF-8" standalone="no"?>
<!DOCTYPE svg PUBLIC "-//W3C//DTD SVG 1.1//EN" "http://www.w3.org/Graphics/SVG/1.1/DTD/svg11.dtd">
<svg width="100%" height="100%" viewBox="0 0 140 140" version="1.1" xmlns="http://www.w3.org/2000/svg" xmlns:xlink="http://www.w3.org/1999/xlink" xml:space="preserve" xmlns:serif="http://www.serif.com/" style="fill-rule:evenodd;clip-rule:evenodd;stroke-linejoin:round;stroke-miterlimit:2;">
    <g transform="matrix(1,0,0,1,-0.482164,-0.484643)">
        <g transform="matrix(1.333333,0,0,1.333333,0,0)">
            <g transform="matrix(1,0,0,1,0.361376,-0.363515)">
                <path d="M67.234,72.786C57.435,80.216 43.415,79.465 34.474,70.524C25.536,61.586 24.785,47.564 32.212,37.765L12.927,18.479C-5.053,38.969 -4.281,70.176 15.271,89.728C34.824,109.281 66.031,110.054 86.521,92.073L67.234,72.786Z" style="fill:url(#_Linear1);"/>
            </g>
        </g>
        <g transform="matrix(1.333333,0,0,1.333333,0,0)">
            <g transform="matrix(1,0,0,1,0.361376,-0.363515)">
                <path d="M33.259,36.377L35.691,33.945L16.488,14.742L14.055,17.173L33.259,36.377Z" style="fill:url(#_Radial2);"/>
            </g>
        </g>
        <g transform="matrix(1.333333,0,0,1.333333,0,0)">
            <g transform="matrix(1,0,0,1,0.361376,-0.363515)">
                <path d="M36.406,33.347L39.222,31.374L23.645,9.128L20.829,11.1L36.406,33.347Z" style="fill:url(#_Radial3);"/>
            </g>
        </g>
        <g transform="matrix(1.333333,0,0,1.333333,0,0)">
            <g transform="matrix(1,0,0,1,0.361376,-0.363515)">
                <path d="M40.032,30.907L43.147,29.453L31.669,4.841L28.554,6.293L40.032,30.907Z" style="fill:url(#_Radial4);"/>
            </g>
        </g>
        <g transform="matrix(1.333333,0,0,1.333333,0,0)">
            <g transform="matrix(1,0,0,1,0.361376,-0.363515)">
                <path d="M44.025,29.136L47.346,28.245L40.316,2.013L36.997,2.901L44.025,29.136Z" style="fill:url(#_Radial5);"/>
            </g>
        </g>
        <g transform="matrix(1.333333,0,0,1.333333,0,0)">
            <g transform="matrix(1,0,0,1,0.361376,-0.363515)">
                <path d="M48.266,28.083L51.691,27.783L49.323,0.728L45.899,1.028L48.266,28.083Z" style="fill:url(#_Radial6);"/>
            </g>
        </g>
        <g transform="matrix(1.333333,0,0,1.333333,0,0)">
            <g transform="matrix(1,0,0,1,0.361376,-0.363515)">
                <path d="M52.626,27.783L56.049,28.083L58.416,1.028L54.992,0.727L52.626,27.783Z" style="fill:url(#_Radial7);"/>
            </g>
        </g>
        <g transform="matrix(1.333333,0,0,1.333333,0,0)">
            <g transform="matrix(1,0,0,1,0.361376,-0.363515)">
                <path d="M56.97,28.245L60.291,29.135L67.318,2.901L64,2.011L56.97,28.245Z" style="fill:url(#_Radial8);"/>
            </g>
        </g>
        <g transform="matrix(1.333333,0,0,1.333333,0,0)">
            <g transform="matrix(1,0,0,1,0.361376,-0.363515)">
                <path d="M61.169,29.455L64.285,30.907L75.761,6.292L72.647,4.841L61.169,29.455Z" style="fill:url(#_Radial9);"/>
            </g>
        </g>
        <g transform="matrix(1.333333,0,0,1.333333,0,0)">
            <g transform="matrix(1,0,0,1,0.361376,-0.363515)">
                <path d="M65.093,31.375L67.91,33.347L83.485,11.098L80.672,9.128L65.093,31.375Z" style="fill:url(#_Radial10);"/>
            </g>
        </g>
        <g transform="matrix(1.333333,0,0,1.333333,0,0)">
            <g transform="matrix(1,0,0,1,0.361376,-0.363515)">
                <path d="M68.626,33.946L71.056,36.378L90.258,17.172L87.831,14.744L68.626,33.946Z" style="fill:url(#_Radial11);"/>
            </g>
        </g>
        <g transform="matrix(1.333333,0,0,1.333333,0,0)">
            <g transform="matrix(1,0,0,1,0.361376,-0.363515)">
                <path d="M71.658,37.094L73.629,39.911L95.874,24.33L93.904,21.517L71.658,37.094Z" style="fill:url(#_Radial12);"/>
            </g>
        </g>
        <g transform="matrix(1.333333,0,0,1.333333,0,0)">
            <g transform="matrix(1,0,0,1,0.361376,-0.363515)">
                <path d="M74.095,40.72L75.548,43.834L100.162,32.353L98.71,29.242L74.095,40.72Z" style="fill:url(#_Radial13);"/>
            </g>
        </g>
        <g transform="matrix(1.333333,0,0,1.333333,0,0)">
            <g transform="matrix(1,0,0,1,0.361376,-0.363515)">
                <path d="M75.868,44.714L76.757,48.033L102.992,41.001L102.103,37.684L75.868,44.714Z" style="fill:url(#_Radial14);"/>
            </g>
        </g>
        <g transform="matrix(1.333333,0,0,1.333333,0,0)">
            <g transform="matrix(1,0,0,1,0.361376,-0.363515)">
                <path d="M76.921,48.954L77.22,52.378L104.275,50.009L103.978,46.588L76.921,48.954Z" style="fill:url(#_Radial15);"/>
            </g>
        </g>
        <g transform="matrix(1.333333,0,0,1.333333,0,0)">
            <g transform="matrix(1,0,0,1,0.361376,-0.363515)">
                <path d="M77.22,53.314L76.921,56.737L103.978,59.102L104.277,55.681L77.22,53.314Z" style="fill:url(#_Radial16);"/>
            </g>
        </g>
        <g transform="matrix(1.333333,0,0,1.333333,0,0)">
            <g transform="matrix(1,0,0,1,0.361376,-0.363515)">
                <path d="M76.759,57.659L75.87,60.978L102.104,68.005L102.992,64.687L76.759,57.659Z" style="fill:url(#_Radial17);"/>
            </g>
        </g>
        <g transform="matrix(1.333333,0,0,1.333333,0,0)">
            <g transform="matrix(1,0,0,1,0.361376,-0.363515)">
                <path d="M75.549,61.857L74.096,64.972L98.712,76.447L100.162,73.336L75.549,61.857Z" style="fill:url(#_Radial18);"/>
            </g>
        </g>
        <g transform="matrix(1.333333,0,0,1.333333,0,0)">
            <g transform="matrix(1,0,0,1,0.361376,-0.363515)">
                <path d="M73.629,65.781L71.658,68.598L93.907,84.173L95.874,81.361L73.629,65.781Z" style="fill:url(#_Radial19);"/>
            </g>
        </g>
        <g transform="matrix(1.333333,0,0,1.333333,0,0)">
            <g transform="matrix(1,0,0,1,0.361376,-0.363515)">
                <path d="M71.056,69.313L68.626,71.746L87.834,90.945L90.256,88.519L71.056,69.313Z" style="fill:url(#_Radial20);"/>
            </g>
        </g>
    </g>
    <defs>
        <linearGradient id="_Linear1" x1="0" y1="0" x2="1" y2="0" gradientUnits="userSpaceOnUse" gradientTransform="matrix(34.438301,100.499,-100.499,34.438301,28.1735,32.799398)"><stop offset="0" style="stop-color:rgb(74,94,115);stop-opacity:1"/><stop offset="0.51" style="stop-color:rgb(33,52,66);stop-opacity:1"/><stop offset="1" style="stop-color:rgb(0,1,10);stop-opacity:1"/></linearGradient>
        <radialGradient id="_Radial2" cx="0" cy="0" r="1" gradientUnits="userSpaceOnUse" gradientTransform="matrix(0,104.855,-104.855,0,46.563898,0.909555)"><stop offset="0" style="stop-color:rgb(251,223,58);stop-opacity:1"/><stop offset="0.51" style="stop-color:rgb(250,166,50);stop-opacity:1"/><stop offset="1" style="stop-color:rgb(244,123,43);stop-opacity:1"/></radialGradient>
        <radialGradient id="_Radial3" cx="0" cy="0" r="1" gradientUnits="userSpaceOnUse" gradientTransform="matrix(0,104.865,-104.865,0,46.566898,0.907141)"><stop offset="0" style="stop-color:rgb(251,223,58);stop-opacity:1"/><stop offset="0.51" style="stop-color:rgb(250,166,50);stop-opacity:1"/><stop offset="1" style="stop-color:rgb(244,123,43);stop-opacity:1"/></radialGradient>
        <radialGradient id="_Radial4" cx="0" cy="0" r="1" gradientUnits="userSpaceOnUse" gradientTransform="matrix(0,104.862,-104.862,0,46.565699,0.907625)"><stop offset="0" style="stop-color:rgb(251,223,58);stop-opacity:1"/><stop offset="0.51" style="stop-color:rgb(250,166,50);stop-opacity:1"/><stop offset="1" style="stop-color:rgb(244,123,43);stop-opacity:1"/></radialGradient>
        <radialGradient id="_Radial5" cx="0" cy="0" r="1" gradientUnits="userSpaceOnUse" gradientTransform="matrix(0,104.868,-104.868,0,46.566898,0.906617)"><stop offset="0" style="stop-color:rgb(251,223,58);stop-opacity:1"/><stop offset="0.51" style="stop-color:rgb(250,166,50);stop-opacity:1"/><stop offset="1" style="stop-color:rgb(244,123,43);stop-opacity:1"/></radialGradient>
        <radialGradient id="_Radial6" cx="0" cy="0" r="1" gradientUnits="userSpaceOnUse" gradientTransform="matrix(0,104.864,-104.864,0,46.568102,0.906711)"><stop offset="0" style="stop-color:rgb(251,223,58);stop-opacity:1"/><stop offset="0.51" style="stop-color:rgb(250,166,50);stop-opacity:1"/><stop offset="1" style="stop-color:rgb(244,123,43);stop-opacity:1"/></radialGradient>
        <radialGradient id="_Radial7" cx="0" cy="0" r="1" gradientUnits="userSpaceOnUse" gradientTransform="matrix(0,104.871,-104.871,0,46.566102,0.905914)"><stop offset="0" style="stop-color:rgb(251,223,58);stop-opacity:1"/><stop offset="0.51" style="stop-color:rgb(250,166,50);stop-opacity:1"/><stop offset="1" style="stop-color:rgb(244,123,43);stop-opacity:1"/></radialGradient>
        <radialGradient id="_Radial8" cx="0" cy="0" r="1" gradientUnits="userSpaceOnUse" gradientTransform="matrix(0,104.864,-104.864,0,46.568,0.906891)"><stop offset="0" style="stop-color:rgb(251,223,58);stop-opacity:1"/><stop offset="0.51" style="stop-color:rgb(250,166,50);stop-opacity:1"/><stop offset="1" style="stop-color:rgb(244,123,43);stop-opacity:1"/></radialGradient>
        <radialGradient id="_Radial9" cx="0" cy="0" r="1" gradientUnits="userSpaceOnUse" gradientTransform="matrix(0,104.864,-104.864,0,46.568102,0.906922)"><stop offset="0" style="stop-color:rgb(251,223,58);stop-opacity:1"/><stop offset="0.51" style="stop-color:rgb(250,166,50);stop-opacity:1"/><stop offset="1" style="stop-color:rgb(244,123,43);stop-opacity:1"/></radialGradient>
        <radialGradient id="_Radial10" cx="0" cy="0" r="1" gradientUnits="userSpaceOnUse" gradientTransform="matrix(0,104.864,-104.864,0,46.5675,0.907328)"><stop offset="0" style="stop-color:rgb(251,223,58);stop-opacity:1"/><stop offset="0.51" style="stop-color:rgb(250,166,50);stop-opacity:1"/><stop offset="1" style="stop-color:rgb(244,123,43);stop-opacity:1"/></radialGradient>
        <radialGradient id="_Radial11" cx="0" cy="0" r="1" gradientUnits="userSpaceOnUse" gradientTransform="matrix(0,104.864,-104.864,0,46.567301,0.907258)"><stop offset="0" style="stop-color:rgb(251,223,58);stop-opacity:1"/><stop offset="0.51" style="stop-color:rgb(250,166,50);stop-opacity:1"/><stop offset="1" style="stop-color:rgb(244,123,43);stop-opacity:1"/></radialGradient>
        <radialGradient id="_Radial12" cx="0" cy="0" r="1" gradientUnits="userSpaceOnUse" gradientTransform="matrix(0,104.856,-104.856,0,46.570703,0.910438)"><stop offset="0" style="stop-color:rgb(251,223,58);stop-opacity:1"/><stop offset="0.51" style="stop-color:rgb(250,166,50);stop-opacity:1"/><stop offset="1" style="stop-color:rgb(244,123,43);stop-opacity:1"/></radialGradient>
        <radialGradient id="_Radial13" cx="0" cy="0" r="1" gradientUnits="userSpaceOnUse" gradientTransform="matrix(0,104.864,-104.864,0,46.567797,0.907414)"><stop offset="0" style="stop-color:rgb(251,223,58);stop-opacity:1"/><stop offset="0.51" style="stop-color:rgb(250,166,50);stop-opacity:1"/><stop offset="1" style="stop-color:rgb(244,123,43);stop-opacity:1"/></radialGradient>
        <radialGradient id="_Radial14" cx="0" cy="0" r="1" gradientUnits="userSpaceOnUse" gradientTransform="matrix(0,104.874,-104.874,0,46.563898,0.904242)"><stop offset="0" style="stop-color:rgb(251,223,58);stop-opacity:1"/><stop offset="0.51" style="stop-color:rgb(250,166,50);stop-opacity:1"/><stop offset="1" style="stop-color:rgb(244,123,43);stop-opacity:1"/></radialGradient>
        <radialGradient id="_Radial15" cx="0" cy="0" r="1" gradientUnits="userSpaceOnUse" gradientTransform="matrix(0,104.866,-104.866,0,46.568,0.906766)"><stop offset="0" style="stop-color:rgb(251,223,58);stop-opacity:1"/><stop offset="0.51" style="stop-color:rgb(250,166,50);stop-opacity:1"/><stop offset="1" style="stop-color:rgb(244,123,43);stop-opacity:1"/></radialGradient>
        <radialGradient id="_Radial16" cx="0" cy="0" r="1" gradientUnits="userSpaceOnUse" gradientTransform="matrix(0,104.871,-104.871,0,46.564801,0.904508)"><stop offset="0" style="stop-color:rgb(251,223,58);stop-opacity:1"/><stop offset="0.51" style="stop-color:rgb(250,166,50);stop-opacity:1"/><stop offset="1" style="stop-color:rgb(244,123,43);stop-opacity:1"/></radialGradient>
        <radialGradient id="_Radial17" cx="0" cy="0" r="1" gradientUnits="userSpaceOnUse" gradientTransform="matrix(0,104.863,-104.863,0,46.568602,0.907977)"><stop offset="0" style="stop-color:rgb(251,223,58);stop-opacity:1"/><stop offset="0.51" style="stop-color:rgb(250,166,50);stop-opacity:1"/><stop offset="1" style="stop-color:rgb(244,123,43);stop-opacity:1"/></radialGradient>
        <radialGradient id="_Radial18" cx="0" cy="0" r="1" gradientUnits="userSpaceOnUse" gradientTransform="matrix(0,104.864,-104.864,0,46.567902,0.908)"><stop offset="0" style="stop-color:rgb(251,223,58);stop-opacity:1"/><stop offset="0.51" style="stop-color:rgb(250,166,50);stop-opacity:1"/><stop offset="1" style="stop-color:rgb(244,123,43);stop-opacity:1"/></radialGradient>
        <radialGradient id="_Radial19" cx="0" cy="0" r="1" gradientUnits="userSpaceOnUse" gradientTransform="matrix(0,104.866,-104.866,0,46.564598,0.908437)"><stop offset="0" style="stop-color:rgb(251,223,58);stop-opacity:1"/><stop offset="0.51" style="stop-color:rgb(250,166,50);stop-opacity:1"/><stop offset="1" style="stop-color:rgb(244,123,43);stop-opacity:1"/></radialGradient>
        <radialGradient id="_Radial20" cx="0" cy="0" r="1" gradientUnits="userSpaceOnUse" gradientTransform="matrix(0,104.865,-104.865,0,46.564203,0.910359)"><stop offset="0" style="stop-color:rgb(251,223,58);stop-opacity:1"/><stop offset="0.51" style="stop-color:rgb(250,166,50);stop-opacity:1"/><stop offset="1" style="stop-color:rgb(244,123,43);stop-opacity:1"/></radialGradient>
    </defs>
</svg>
