<?xml version="1.0" encoding="UTF-8" standalone="no"?>
<!DOCTYPE svg PUBLIC "-//W3C//DTD SVG 1.1//EN" "http://www.w3.org/Graphics/SVG/1.1/DTD/svg11.dtd">
<svg width="100%" height="100%" viewBox="0 0 3350 1039" version="1.1" xmlns="http://www.w3.org/2000/svg" xmlns:xlink="http://www.w3.org/1999/xlink" xml:space="preserve" xmlns:serif="http://www.serif.com/" style="fill-rule:evenodd;clip-rule:evenodd;stroke-linejoin:round;stroke-miterlimit:2;">
    <g transform="matrix(1,0,0,1,-100.276352,-501.306693)">
        <g id="open" transform="matrix(1,0,0,1,632.512905,-476.03)">
            <path d="M800.619,1636.91C793.169,1657.99 776.928,1668.527 751.896,1668.52C731.296,1668.52 716.085,1660.757 706.263,1645.23C701.822,1638.26 698.098,1626.613 695.092,1610.29C692.086,1593.967 690.581,1566.477 690.577,1527.82L690.577,1493.59C690.577,1457.79 691.528,1430.697 693.429,1412.31C695.011,1399.643 697.15,1389.82 699.846,1382.84C702.59,1375.774 706.183,1369.068 710.546,1362.87C714.656,1356.793 720.554,1352.141 727.421,1349.56C734.232,1347.027 742.392,1345.76 751.901,1345.76C761.41,1345.76 769.491,1347.027 776.143,1349.56C787.864,1353.693 796.896,1364.47 803.238,1381.89C808.942,1397.1 811.794,1433.7 811.794,1491.69L811.794,1526.87C811.791,1579.15 808.066,1615.83 800.619,1636.91ZM870.019,1633.34C896.475,1603.24 909.705,1560.937 909.71,1506.43C909.715,1451.923 896.643,1409.853 870.494,1380.22C844.35,1350.6 805.61,1335.787 754.273,1335.78C702.936,1335.773 663.245,1351.38 635.2,1382.6C607.155,1413.82 593.133,1456.6 593.132,1510.94C593.132,1565.3 606.204,1606.813 632.348,1635.48C658.492,1664.17 698.025,1678.51 750.948,1678.5C803.865,1678.5 843.556,1663.447 870.019,1633.34ZM1107.45,1545.88L1107.45,1570.6C1107.45,1605.46 1105.547,1629.86 1101.74,1643.8C1097.94,1657.75 1090.81,1664.723 1080.35,1664.72C1069.89,1664.717 1061.967,1659.963 1056.58,1650.46C1051.19,1640.95 1048.497,1629.383 1048.5,1615.76L1048.5,1528.77C1048.5,1508.8 1052.147,1492.877 1059.44,1481C1066.72,1469.11 1074.957,1463.167 1084.15,1463.17C1093.343,1463.173 1099.523,1468.8 1102.69,1480.05C1105.86,1491.3 1107.447,1513.243 1107.45,1545.88ZM934.9,1447.48L934.9,1456.04L960.09,1456.04L960.09,1778.32L933.946,1778.32L933.946,1786.88L1109.82,1786.88L1109.82,1778.32L1048.5,1778.32L1048.5,1655.21C1052.85,1662.741 1059.291,1668.852 1067.04,1672.8C1074.65,1676.6 1086.06,1678.5 1101.27,1678.5C1133.9,1678.5 1158.38,1668.993 1174.71,1649.98C1191.02,1630.97 1199.18,1601.5 1199.19,1561.57C1199.19,1521.64 1191.663,1491.85 1176.61,1472.2C1161.557,1452.55 1140.403,1442.727 1113.15,1442.73C1081.78,1442.73 1059.913,1456.833 1047.55,1485.04L1047.55,1447.48L934.9,1447.48ZM1338.46,1678.5C1369.83,1678.5 1393.36,1672.163 1409.05,1659.49C1424.74,1646.817 1435.593,1629.07 1441.61,1606.25L1433.05,1604.82C1421.65,1644.12 1397.567,1663.77 1360.8,1663.77C1341.15,1663.77 1327.367,1655.847 1319.45,1640C1311.517,1624.16 1307.553,1600.71 1307.56,1569.65L1307.56,1551.11L1441.61,1551.11C1444.46,1478.86 1409.92,1442.733 1337.99,1442.73C1302.49,1442.73 1273.257,1452.713 1250.29,1472.68C1227.31,1492.64 1215.82,1521.397 1215.82,1558.95C1215.82,1596.503 1226.04,1625.817 1246.48,1646.89C1266.92,1667.97 1297.58,1678.507 1338.46,1678.5ZM1308.04,1518.31C1308.04,1493.91 1310.18,1476.72 1314.46,1466.74C1318.727,1456.75 1325.38,1451.757 1334.42,1451.76C1343.46,1451.763 1349.48,1456.44 1352.48,1465.79C1355.49,1475.14 1356.997,1492.647 1357,1518.31L1357,1541.6L1308.04,1541.6L1308.04,1518.31ZM1459.67,1456.04L1485.81,1456.04L1485.81,1665.19L1459.67,1665.19L1459.67,1673.75L1594.67,1673.75L1594.67,1665.19L1574.23,1665.19L1574.23,1534C1574.23,1514.98 1578.11,1498.817 1585.87,1485.51C1593.64,1472.2 1602.593,1465.547 1612.73,1465.55C1619.39,1465.55 1623.987,1468.323 1626.52,1473.87C1629.053,1479.417 1630.32,1491.697 1630.32,1510.71L1630.32,1665.19L1610.83,1665.19L1610.83,1673.75L1745.35,1673.75L1745.35,1665.19L1718.73,1665.19L1718.73,1522.11C1718.73,1469.19 1694.17,1442.73 1645.05,1442.73C1623.82,1442.73 1607.977,1447.167 1597.52,1456.04C1587.063,1464.913 1579.3,1476.64 1574.23,1491.22L1574.23,1447.48L1459.67,1447.48L1459.67,1456.04Z" style="fill:white;"/>
        </g>
        <g transform="matrix(9.96122,0,0,9.96122,96.674144,497.685967)">
            <g transform="matrix(1,0,0,1,0.361376,-0.363515)">
                <path d="M67.234,72.786C57.435,80.216 43.415,79.465 34.474,70.524C25.536,61.586 24.785,47.564 32.212,37.765L12.927,18.479C-5.053,38.969 -4.281,70.176 15.271,89.728C34.824,109.281 66.031,110.054 86.521,92.073L67.234,72.786Z" style="fill:white;"/>
            </g>
            <g transform="matrix(1,0,0,1,0.361376,-0.363515)">
                <path d="M33.259,36.377L35.691,33.945L16.488,14.742L14.055,17.173L33.259,36.377Z" style="fill:white;"/>
            </g>
            <g transform="matrix(1,0,0,1,0.361376,-0.363515)">
                <path d="M36.406,33.347L39.222,31.374L23.645,9.128L20.829,11.1L36.406,33.347Z" style="fill:white;"/>
            </g>
            <g transform="matrix(1,0,0,1,0.361376,-0.363515)">
                <path d="M40.032,30.907L43.147,29.453L31.669,4.841L28.554,6.293L40.032,30.907Z" style="fill:white;"/>
            </g>
            <g transform="matrix(1,0,0,1,0.361376,-0.363515)">
                <path d="M44.025,29.136L47.346,28.245L40.316,2.013L36.997,2.901L44.025,29.136Z" style="fill:white;"/>
            </g>
            <g transform="matrix(1,0,0,1,0.361376,-0.363515)">
                <path d="M48.266,28.083L51.691,27.783L49.323,0.728L45.899,1.028L48.266,28.083Z" style="fill:white;"/>
            </g>
            <g transform="matrix(1,0,0,1,0.361376,-0.363515)">
                <path d="M52.626,27.783L56.049,28.083L58.416,1.028L54.992,0.727L52.626,27.783Z" style="fill:white;"/>
            </g>
            <g transform="matrix(1,0,0,1,0.361376,-0.363515)">
                <path d="M56.97,28.245L60.291,29.135L67.318,2.901L64,2.011L56.97,28.245Z" style="fill:white;"/>
            </g>
            <g transform="matrix(1,0,0,1,0.361376,-0.363515)">
                <path d="M61.169,29.455L64.285,30.907L75.761,6.292L72.647,4.841L61.169,29.455Z" style="fill:white;"/>
            </g>
            <g transform="matrix(1,0,0,1,0.361376,-0.363515)">
                <path d="M65.093,31.375L67.91,33.347L83.485,11.098L80.672,9.128L65.093,31.375Z" style="fill:white;"/>
            </g>
            <g transform="matrix(1,0,0,1,0.361376,-0.363515)">
                <path d="M68.626,33.946L71.056,36.378L90.258,17.172L87.831,14.744L68.626,33.946Z" style="fill:white;"/>
            </g>
            <g transform="matrix(1,0,0,1,0.361376,-0.363515)">
                <path d="M71.658,37.094L73.629,39.911L95.874,24.33L93.904,21.517L71.658,37.094Z" style="fill:white;"/>
            </g>
            <g transform="matrix(1,0,0,1,0.361376,-0.363515)">
                <path d="M74.095,40.72L75.548,43.834L100.162,32.353L98.71,29.242L74.095,40.72Z" style="fill:white;"/>
            </g>
            <g transform="matrix(1,0,0,1,0.361376,-0.363515)">
                <path d="M75.868,44.714L76.757,48.033L102.992,41.001L102.103,37.684L75.868,44.714Z" style="fill:white;"/>
            </g>
            <g transform="matrix(1,0,0,1,0.361376,-0.363515)">
                <path d="M76.921,48.954L77.22,52.378L104.275,50.009L103.978,46.588L76.921,48.954Z" style="fill:white;"/>
            </g>
            <g transform="matrix(1,0,0,1,0.361376,-0.363515)">
                <path d="M77.22,53.314L76.921,56.737L103.978,59.102L104.277,55.681L77.22,53.314Z" style="fill:white;"/>
            </g>
            <g transform="matrix(1,0,0,1,0.361376,-0.363515)">
                <path d="M76.759,57.659L75.87,60.978L102.104,68.005L102.992,64.687L76.759,57.659Z" style="fill:white;"/>
            </g>
            <g transform="matrix(1,0,0,1,0.361376,-0.363515)">
                <path d="M75.549,61.857L74.096,64.972L98.712,76.447L100.162,73.336L75.549,61.857Z" style="fill:white;"/>
            </g>
            <g transform="matrix(1,0,0,1,0.361376,-0.363515)">
                <path d="M73.629,65.781L71.658,68.598L93.907,84.173L95.874,81.361L73.629,65.781Z" style="fill:white;"/>
            </g>
            <g transform="matrix(1,0,0,1,0.361376,-0.363515)">
                <path d="M71.056,69.313L68.626,71.746L87.834,90.945L90.256,88.519L71.056,69.313Z" style="fill:white;"/>
            </g>
        </g>
        <g id="sixty" transform="matrix(1,0,0,1,632.512905,-476.03)">
            <path d="M1775.17,1679.65C1781.76,1668.05 1788.503,1662.247 1795.4,1662.24C1797.59,1662.24 1800.58,1663.5 1804.34,1666.01C1821.825,1674.932 1841.17,1679.605 1860.8,1679.65C1888.08,1679.65 1909.563,1672.827 1925.25,1659.18C1940.937,1645.533 1948.777,1625.46 1948.77,1598.96C1948.77,1572.46 1940.147,1553.25 1922.9,1541.33C1914.441,1535.698 1905.46,1530.892 1896.08,1526.98C1886.67,1523.06 1871.303,1518.433 1849.98,1513.1C1847.026,1512.516 1844.116,1511.731 1841.27,1510.75C1837.35,1509.5 1834.45,1508.48 1832.57,1507.69C1830.69,1506.91 1828.33,1505.81 1825.51,1504.4C1823.28,1503.388 1821.219,1502.039 1819.4,1500.4C1818.14,1499.15 1816.413,1497.19 1814.22,1494.52C1812.027,1491.85 1810.93,1488.163 1810.93,1483.46C1810.93,1475.63 1814.537,1469.123 1821.75,1463.94C1828.96,1458.77 1839.937,1456.183 1854.68,1456.18C1888.24,1456.18 1913.017,1476.567 1929.01,1517.34L1934.66,1517.34L1934.66,1445.36L1929.48,1445.36C1926.347,1451.32 1923.683,1455.397 1921.49,1457.59C1919.393,1459.743 1916.495,1460.935 1913.49,1460.88C1910.35,1460.88 1905.8,1459.627 1899.84,1457.12C1883.53,1449.91 1867.693,1446.303 1852.33,1446.3C1827.23,1446.3 1807.157,1453.59 1792.11,1468.17C1777.05,1482.76 1769.523,1502.287 1769.53,1526.75C1769.537,1551.213 1778.16,1569.09 1795.4,1580.38C1809.82,1589.79 1827.697,1597.317 1849.03,1602.96C1868.163,1606.73 1883.847,1612.063 1896.08,1618.96C1903.92,1623.35 1907.84,1629.937 1907.84,1638.72C1907.84,1659.11 1891.847,1669.303 1859.86,1669.3C1839.15,1669.3 1821.897,1663.81 1808.1,1652.83C1794.3,1641.86 1783.323,1622.73 1775.17,1595.44L1769.53,1595.44L1769.53,1679.65L1775.17,1679.65ZM2068.74,1406.31C2076.57,1398.16 2080.49,1387.26 2080.5,1373.61C2080.5,1359.97 2076.423,1349.463 2068.27,1342.09C2060.117,1334.717 2048.197,1331.03 2032.51,1331.03C2016.82,1331.03 2005.137,1335.11 1997.46,1343.27C1989.77,1351.43 1985.93,1361.78 1985.94,1374.32C1985.94,1386.87 1989.467,1397.377 1996.52,1405.84C2003.573,1414.303 2015.413,1418.537 2032.04,1418.54C2048.66,1418.54 2060.893,1414.463 2068.74,1406.31ZM1961,1459.47L1988.76,1459.47L1988.76,1666.48L1962.88,1666.48L1962.88,1674.94L2102.61,1674.94L2102.61,1666.48L2076.26,1666.48L2076.26,1451L1961,1451L1961,1459.47ZM2228.69,1459.47L2261.62,1459.47L2261.62,1451L2102.61,1451L2102.61,1459.47L2129.89,1459.47L2201.4,1572.38L2141.66,1666.48L2110.6,1666.48L2110.6,1674.94L2184.47,1674.94L2184.47,1666.48L2153.42,1666.48L2207.05,1581.79L2258.8,1666.48L2225.4,1666.48L2225.4,1674.94L2382.53,1674.94L2382.53,1666.48L2358.07,1666.48L2281.38,1546.04L2342.54,1459.47L2367.01,1459.47L2367.01,1451L2296.91,1451L2296.91,1459.47L2330.78,1459.47L2275.27,1536.16L2228.69,1459.47ZM2431.45,1664.12C2445.25,1674.47 2465.167,1679.647 2491.2,1679.65C2517.233,1679.653 2535.897,1673.3 2547.19,1660.59C2558.48,1647.89 2565.38,1630.72 2567.89,1609.08L2559.89,1608.14C2557.69,1624.45 2553.063,1637.31 2546.01,1646.72C2538.957,1656.13 2530.723,1660.833 2521.31,1660.83C2511.9,1660.83 2505.707,1657.38 2502.73,1650.48C2499.753,1643.58 2498.263,1632.76 2498.26,1618.02L2498.26,1459.47L2559.42,1459.47L2559.42,1451L2498.26,1451L2498.26,1368.67L2410.75,1390.31L2410.75,1451L2384.88,1451L2384.88,1459.47L2410.75,1459.47L2410.75,1607.67C2410.75,1634.95 2417.65,1653.767 2431.45,1664.12ZM2584.83,1459.47L2665.28,1674.94L2706.68,1674.94L2696.33,1704.11C2687.23,1730.14 2677.663,1749.51 2667.63,1762.22C2657.597,1774.93 2646.15,1781.28 2633.29,1781.27C2626.7,1781.27 2622.463,1778.917 2620.58,1774.21C2618.697,1769.503 2619.01,1763.543 2621.52,1756.33L2637.99,1756.33C2639.695,1750.841 2640.643,1745.145 2640.81,1739.4C2640.81,1717.76 2627.793,1706.94 2601.76,1706.94C2590.47,1706.94 2581.377,1710.39 2574.48,1717.29C2567.57,1724.18 2564.12,1734.217 2564.13,1747.4C2564.13,1760.57 2569.46,1771.39 2580.12,1779.86C2590.78,1788.33 2605.367,1792.563 2623.88,1792.56C2642.38,1792.56 2658.06,1786.68 2670.92,1774.92C2683.78,1763.16 2695.387,1742.537 2705.74,1713.05L2793.71,1459.47L2817.24,1459.47L2817.24,1451L2750.9,1451L2750.9,1459.47L2782.42,1459.47L2727.85,1615.67L2676.57,1459.47L2701.97,1459.47L2701.97,1451L2565.54,1451L2565.54,1459.47L2584.83,1459.47Z" style="fill:white;"/>
        </g>
        <g id="private_limited" transform="matrix(1,0,0,1,632.512905,-476.03)">
            <path d="M1153.94,1788L1167.2,1788L1167.2,1772.15L1174.43,1772.15C1179.75,1772.15 1183.707,1770.937 1186.3,1768.51C1188.893,1766.083 1190.19,1762.713 1190.19,1758.4C1190.19,1754.2 1189,1750.967 1186.62,1748.7C1184.24,1746.42 1180.66,1745.283 1175.88,1745.29L1153.94,1745.29L1153.94,1788ZM1167.2,1753.97L1170.96,1753.97C1173.427,1753.97 1175.107,1754.437 1176,1755.37C1176.884,1756.282 1177.367,1757.511 1177.34,1758.78C1177.37,1760.085 1176.803,1761.334 1175.8,1762.17C1174.77,1763.06 1172.98,1763.503 1170.43,1763.5L1167.2,1763.5L1167.2,1753.97ZM1266.62,1788L1266.62,1770.67L1267.78,1770.67C1268.937,1770.654 1270.07,1771 1271.02,1771.66C1272.035,1772.581 1272.848,1773.701 1273.41,1774.95L1280.46,1788L1295.38,1788L1288.98,1775.63C1288.456,1774.685 1287.839,1773.794 1287.14,1772.97C1286.523,1772.146 1285.815,1771.395 1285.03,1770.73C1283.965,1770.041 1282.807,1769.509 1281.59,1769.15C1283.211,1768.83 1284.773,1768.259 1286.22,1767.46C1291.949,1763.741 1293.621,1755.977 1289.93,1750.23C1288.677,1748.384 1286.838,1747.013 1284.71,1746.34C1281.662,1745.529 1278.511,1745.176 1275.36,1745.29L1253.36,1745.29L1253.36,1788L1266.62,1788ZM1266.62,1753.91L1272.42,1753.91C1274.83,1753.91 1276.47,1754.28 1277.34,1755.02C1278.878,1756.514 1279.083,1758.938 1277.82,1760.67C1277.301,1761.37 1276.536,1761.849 1275.68,1762.01C1274.533,1762.31 1273.362,1762.508 1272.18,1762.6L1266.62,1762.6L1266.62,1753.91ZM1356.22,1788L1369.45,1788L1369.45,1745.29L1356.22,1745.29L1356.22,1788ZM1446.94,1788L1461.25,1788L1477.11,1745.29L1463.71,1745.29L1454.22,1776.03L1444.61,1745.29L1430.81,1745.29L1446.94,1788ZM1562.5,1788L1576.33,1788L1560.28,1745.29L1545.88,1745.29L1529.82,1788L1543.3,1788L1545.38,1780.95L1560.37,1780.95L1562.5,1788ZM1548.25,1771.72L1552.91,1756.36L1557.63,1771.72L1548.25,1771.72ZM1629.5,1755.84L1642.97,1755.84L1642.97,1788L1656.16,1788L1656.16,1755.84L1669.63,1755.84L1669.63,1745.29L1629.5,1745.29L1629.5,1755.84ZM1731.66,1788L1767.68,1788L1767.68,1778.33L1744.89,1778.33L1744.89,1769.91L1765.43,1769.91L1765.43,1761.2L1744.89,1761.2L1744.89,1754.41L1767.03,1754.41L1767.03,1745.29L1731.66,1745.29L1731.66,1788ZM1906.87,1788L1940.67,1788L1940.67,1777.48L1920.07,1777.48L1920.07,1745.29L1906.87,1745.29L1906.87,1788ZM2003.29,1788L2016.52,1788L2016.52,1745.29L2003.29,1745.29L2003.29,1788ZM2081.93,1788L2092.74,1788L2092.74,1755.43L2101.05,1788L2110.84,1788L2119.17,1755.43L2119.17,1788L2129.98,1788L2129.98,1745.29L2112.63,1745.29L2105.98,1771.28L2099.29,1745.29L2081.93,1745.29L2081.93,1788ZM2195.02,1788L2208.24,1788L2208.24,1745.29L2195.02,1745.29L2195.02,1788ZM2270.8,1755.84L2284.27,1755.84L2284.27,1788L2297.46,1788L2297.46,1755.84L2310.93,1755.84L2310.93,1745.29L2270.8,1745.29L2270.8,1755.84ZM2372.96,1788L2408.98,1788L2408.98,1778.33L2386.19,1778.33L2386.19,1769.91L2406.73,1769.91L2406.73,1761.2L2386.19,1761.2L2386.19,1754.41L2408.33,1754.41L2408.33,1745.29L2372.96,1745.29L2372.96,1788ZM2472.35,1788L2491.96,1788C2494.622,1787.953 2497.267,1787.563 2499.83,1786.84C2502.057,1786.208 2504.097,1785.041 2505.77,1783.44C2507.663,1781.679 2509.141,1779.521 2510.1,1777.12C2511.14,1774.6 2511.66,1771.06 2511.66,1766.5C2511.675,1763.706 2511.322,1760.922 2510.61,1758.22C2509.964,1755.732 2508.814,1753.404 2507.23,1751.38C2505.665,1749.412 2503.638,1747.859 2501.33,1746.86C2498.346,1745.703 2495.158,1745.169 2491.96,1745.29L2472.35,1745.29L2472.35,1788ZM2488.84,1754.96C2492.26,1754.96 2494.71,1755.797 2496.19,1757.47C2497.657,1759.14 2498.393,1762.237 2498.4,1766.76C2498.4,1770.18 2498.07,1772.653 2497.41,1774.18C2496.898,1775.533 2495.929,1776.666 2494.67,1777.38C2492.799,1778.118 2490.787,1778.432 2488.78,1778.3L2485.55,1778.3L2485.55,1754.96L2488.84,1754.96Z" style="fill:white;"/>
        </g>
    </g>
</svg>
