<?xml version="1.0" encoding="UTF-8" standalone="no"?>
<!DOCTYPE svg PUBLIC "-//W3C//DTD SVG 1.1//EN" "http://www.w3.org/Graphics/SVG/1.1/DTD/svg11.dtd">
<svg width="100%" height="100%" viewBox="0 0 2122 543" version="1.1" xmlns="http://www.w3.org/2000/svg" xmlns:xlink="http://www.w3.org/1999/xlink" xml:space="preserve" xmlns:serif="http://www.serif.com/" style="fill-rule:evenodd;clip-rule:evenodd;stroke-linejoin:round;stroke-miterlimit:2;">
    <g transform="matrix(1,0,0,1,-2.211574,-520.108523)">
        <g transform="matrix(1.017494,0,0,1.017494,-12.677409,107.404966)">
            <path d="M1916.17,822.317L1894.09,783.897L1867.77,822.317L1916.17,822.317Z" style="fill:rgb(255,142,48);fill-rule:nonzero;"/>
            <path d="M1829.35,822.317L1807.27,783.897L1780.95,822.317L1829.35,822.317Z" style="fill:rgb(255,142,48);fill-rule:nonzero;"/>
            <path d="M2002.99,822.317L1980.91,783.895L1954.59,822.317L2002.99,822.317Z" style="fill:rgb(255,142,48);fill-rule:nonzero;"/>
            <path d="M1568.88,822.317L1546.8,783.897L1520.49,822.317L1568.88,822.317Z" style="fill:rgb(255,142,48);fill-rule:nonzero;"/>
            <path d="M1742.53,822.317L1720.45,783.897L1694.13,822.317L1742.53,822.317Z" style="fill:rgb(255,142,48);fill-rule:nonzero;"/>
            <path d="M1655.71,822.317L1633.62,783.897L1607.31,822.317L1655.71,822.317Z" style="fill:rgb(255,142,48);fill-rule:nonzero;"/>
            <path d="M275.369,502.256L332.072,405.608L267.932,405.608L211.228,502.256L275.369,502.256Z" style="fill:rgb(255,142,48);fill-rule:nonzero;"/>
            <path d="M362.185,502.256L418.894,405.608L354.753,405.608L298.05,502.256L362.185,502.256Z" style="fill:rgb(255,142,48);fill-rule:nonzero;"/>
            <path d="M449.007,502.256L505.715,405.608L441.573,405.608L384.866,502.256L449.007,502.256Z" style="fill:rgb(255,142,48);fill-rule:nonzero;"/>
            <path d="M2036.54,729.623L1972.29,729.623L2021.97,816.076L2056.909,765.069L2036.54,729.623Z" style="fill:rgb(255,142,48);fill-rule:nonzero;"/>
            <path d="M188.547,502.256L245.251,405.608L181.111,405.608L124.406,502.256L188.547,502.256Z" style="fill:rgb(255,142,48);fill-rule:nonzero;"/>
            <path d="M2091.169,405.608L2034.47,502.256L2098.61,502.256L2100.15,499.642L2100.15,405.608L2091.169,405.608Z" style="fill:rgb(255,142,48);fill-rule:nonzero;"/>
            <path d="M961.138,822.317L939.055,783.897L912.741,822.317L961.138,822.317Z" style="fill:rgb(255,142,48);fill-rule:nonzero;"/>
            <path d="M1482.06,822.317L1459.98,783.897L1433.67,822.317L1482.06,822.317Z" style="fill:rgb(255,142,48);fill-rule:nonzero;"/>
            <path d="M874.316,822.317L852.234,783.897L825.919,822.317L874.316,822.317Z" style="fill:rgb(255,142,48);fill-rule:nonzero;"/>
            <path d="M787.495,822.317L765.414,783.895L739.097,822.317L787.495,822.317Z" style="fill:rgb(255,142,48);fill-rule:nonzero;"/>
            <path d="M700.674,822.317L678.592,783.895L652.276,822.317L700.674,822.317Z" style="fill:rgb(255,142,48);fill-rule:nonzero;"/>
            <path d="M613.852,822.317L591.77,783.895L565.454,822.317L613.852,822.317Z" style="fill:rgb(255,142,48);fill-rule:nonzero;"/>
            <path d="M527.03,822.317L504.949,783.895L478.633,822.317L527.03,822.317Z" style="fill:rgb(255,142,48);fill-rule:nonzero;"/>
            <path d="M1047.959,822.317L1025.88,783.897L999.562,822.317L1047.959,822.317Z" style="fill:rgb(255,142,48);fill-rule:nonzero;"/>
            <path d="M1308.42,822.317L1286.34,783.897L1260.03,822.317L1308.42,822.317Z" style="fill:rgb(255,142,48);fill-rule:nonzero;"/>
            <path d="M1395.24,822.317L1373.16,783.9L1346.85,822.317L1395.24,822.317Z" style="fill:rgb(255,142,48);fill-rule:nonzero;"/>
            <path d="M1134.78,822.317L1112.7,783.897L1086.38,822.317L1134.78,822.317Z" style="fill:rgb(255,142,48);fill-rule:nonzero;"/>
            <path d="M1221.6,822.317L1199.52,783.897L1173.21,822.317L1221.6,822.317Z" style="fill:rgb(255,142,48);fill-rule:nonzero;"/>
            <path d="M535.829,502.256L592.537,405.608L528.395,405.608L471.688,502.256L535.829,502.256Z" style="fill:rgb(255,142,48);fill-rule:nonzero;"/>
            <path d="M2011.79,502.256L2068.49,405.608L2004.36,405.608L1947.65,502.256L2011.79,502.256Z" style="fill:rgb(255,142,48);fill-rule:nonzero;"/>
            <path d="M2089.81,521.82L2041.42,521.82L2067.73,560.24L2089.81,521.82Z" style="fill:rgb(255,142,48);fill-rule:nonzero;"/>
            <path d="M1924.97,502.256L1981.68,405.608L1917.54,405.608L1860.83,502.256L1924.97,502.256Z" style="fill:rgb(255,142,48);fill-rule:nonzero;"/>
            <path d="M622.65,502.256L679.354,405.608L615.217,405.608L558.51,502.256L622.65,502.256Z" style="fill:rgb(255,142,48);fill-rule:nonzero;"/>
            <path d="M1751.33,502.256L1808.03,405.608L1743.89,405.608L1687.19,502.256L1751.33,502.256Z" style="fill:rgb(255,142,48);fill-rule:nonzero;"/>
            <path d="M1980.91,560.24L2002.99,521.82L1954.59,521.82L1980.91,560.24Z" style="fill:rgb(255,142,48);fill-rule:nonzero;"/>
            <path d="M1838.15,502.256L1894.85,405.608L1830.71,405.608L1774.01,502.256L1838.15,502.256Z" style="fill:rgb(255,142,48);fill-rule:nonzero;"/>
            <path d="M1546.8,560.24L1568.88,521.82L1520.49,521.82L1546.8,560.24Z" style="fill:rgb(255,142,48);fill-rule:nonzero;"/>
            <path d="M1633.62,560.24L1655.71,521.82L1607.31,521.82L1633.62,560.24Z" style="fill:rgb(255,142,48);fill-rule:nonzero;"/>
            <path d="M1894.09,560.24L1916.17,521.82L1867.78,521.82L1894.09,560.24Z" style="fill:rgb(255,142,48);fill-rule:nonzero;"/>
            <path d="M1807.27,560.24L1829.35,521.82L1780.96,521.82L1807.27,560.24Z" style="fill:rgb(255,142,48);fill-rule:nonzero;"/>
            <path d="M1720.45,560.24L1742.53,521.82L1694.13,521.82L1720.45,560.24Z" style="fill:rgb(255,142,48);fill-rule:nonzero;"/>
            <path d="M1664.51,502.256L1721.21,405.608L1657.07,405.608L1600.37,502.256L1664.51,502.256Z" style="fill:rgb(255,142,48);fill-rule:nonzero;"/>
            <path d="M969.936,502.256L1026.64,405.608L962.499,405.608L905.796,502.256L969.936,502.256Z" style="fill:rgb(255,142,48);fill-rule:nonzero;"/>
            <path d="M883.115,502.256L939.818,405.608L875.677,405.608L818.974,502.256L883.115,502.256Z" style="fill:rgb(255,142,48);fill-rule:nonzero;"/>
            <path d="M1056.76,502.256L1113.46,405.608L1049.32,405.608L992.617,502.256L1056.76,502.256Z" style="fill:rgb(255,142,48);fill-rule:nonzero;"/>
            <path d="M796.293,502.256L852.997,405.608L788.856,405.608L732.152,502.256L796.293,502.256Z" style="fill:rgb(255,142,48);fill-rule:nonzero;"/>
            <path d="M709.471,502.256L766.175,405.608L702.035,405.608L645.331,502.256L709.471,502.256Z" style="fill:rgb(255,142,48);fill-rule:nonzero;"/>
            <path d="M1230.4,502.256L1287.1,405.608L1222.96,405.608L1166.26,502.256L1230.4,502.256Z" style="fill:rgb(255,142,48);fill-rule:nonzero;"/>
            <path d="M1143.58,502.256L1200.28,405.608L1136.14,405.608L1079.44,502.256L1143.58,502.256Z" style="fill:rgb(255,142,48);fill-rule:nonzero;"/>
            <path d="M1490.86,502.256L1547.57,405.608L1483.43,405.608L1426.72,502.256L1490.86,502.256Z" style="fill:rgb(255,142,48);fill-rule:nonzero;"/>
            <path d="M1404.04,502.256L1460.75,405.608L1396.61,405.608L1339.9,502.256L1404.04,502.256Z" style="fill:rgb(255,142,48);fill-rule:nonzero;"/>
            <path d="M1317.22,502.256L1373.93,405.608L1309.78,405.608L1253.08,502.256L1317.22,502.256Z" style="fill:rgb(255,142,48);fill-rule:nonzero;"/>
            <path d="M1577.69,502.256L1634.39,405.608L1570.25,405.608L1513.55,502.256L1577.69,502.256Z" style="fill:rgb(255,142,48);fill-rule:nonzero;"/>
            <path d="M1190.89,729.623L1240.58,816.079L1275.52,765.069L1255.15,729.623L1190.89,729.623Z" style="fill:rgb(255,142,48);fill-rule:nonzero;"/>
            <path d="M645.331,841.881L702.464,939.263L766.606,939.263L709.471,841.881L645.331,841.881Z" style="fill:rgb(255,142,48);fill-rule:nonzero;"/>
            <path d="M992.617,841.881L1049.75,939.263L1113.89,939.263L1056.76,841.881L992.617,841.881Z" style="fill:rgb(255,142,48);fill-rule:nonzero;"/>
            <path d="M732.152,841.881L789.286,939.263L853.428,939.263L796.293,841.881L732.152,841.881Z" style="fill:rgb(255,142,48);fill-rule:nonzero;"/>
            <path d="M818.974,841.881L876.107,939.263L940.249,939.263L883.115,841.881L818.974,841.881Z" style="fill:rgb(255,142,48);fill-rule:nonzero;"/>
            <path d="M905.796,841.881L962.929,939.263L1027.069,939.263L969.936,841.881L905.796,841.881Z" style="fill:rgb(255,142,48);fill-rule:nonzero;"/>
            <path d="M471.688,841.881L528.826,939.263L592.966,939.263L535.829,841.881L471.688,841.881Z" style="fill:rgb(255,142,48);fill-rule:nonzero;"/>
            <path d="M558.51,841.881L615.648,939.263L679.785,939.263L622.65,841.881L558.51,841.881Z" style="fill:rgb(255,142,48);fill-rule:nonzero;"/>
            <path d="M124.407,841.881L181.54,939.263L245.682,939.263L188.547,841.881L124.407,841.881Z" style="fill:rgb(255,142,48);fill-rule:nonzero;"/>
            <path d="M384.868,841.881L442.005,939.263L506.146,939.263L449.007,841.881L384.868,841.881Z" style="fill:rgb(255,142,48);fill-rule:nonzero;"/>
            <path d="M1798.64,729.623L1848.33,816.081L1883.27,765.069L1862.9,729.623L1798.64,729.623Z" style="fill:rgb(255,142,48);fill-rule:nonzero;"/>
            <path d="M298.05,841.881L355.183,939.263L419.324,939.263L362.185,841.881L298.05,841.881Z" style="fill:rgb(255,142,48);fill-rule:nonzero;"/>
            <path d="M211.228,841.881L268.362,939.263L332.504,939.263L275.369,841.881L211.228,841.881Z" style="fill:rgb(255,142,48);fill-rule:nonzero;"/>
            <path d="M1513.55,841.881L1570.68,939.263L1634.82,939.263L1577.69,841.881L1513.55,841.881Z" style="fill:rgb(255,142,48);fill-rule:nonzero;"/>
            <path d="M1774.01,841.881L1831.14,939.263L1895.29,939.263L1838.15,841.881L1774.01,841.881Z" style="fill:rgb(255,142,48);fill-rule:nonzero;"/>
            <path d="M1600.37,841.881L1657.5,939.263L1721.64,939.263L1664.51,841.881L1600.37,841.881Z" style="fill:rgb(255,142,48);fill-rule:nonzero;"/>
            <path d="M1687.19,841.881L1744.32,939.263L1808.46,939.263L1751.33,841.881L1687.19,841.881Z" style="fill:rgb(255,142,48);fill-rule:nonzero;"/>
            <path d="M1860.83,841.881L1917.97,939.263L1982.11,939.263L1924.97,841.881L1860.83,841.881Z" style="fill:rgb(255,142,48);fill-rule:nonzero;"/>
            <path d="M1947.65,841.881L2004.79,939.263L2068.919,939.263L2011.79,841.881L1947.65,841.881Z" style="fill:rgb(255,142,48);fill-rule:nonzero;"/>
            <path d="M1970.09,765.069L1949.72,729.623L1885.46,729.623L1935.15,816.076L1970.09,765.069Z" style="fill:rgb(255,142,48);fill-rule:nonzero;"/>
            <path d="M1166.26,841.881L1223.39,939.263L1287.54,939.263L1230.4,841.881L1166.26,841.881Z" style="fill:rgb(255,142,48);fill-rule:nonzero;"/>
            <path d="M1253.08,841.881L1310.22,939.263L1374.36,939.263L1317.22,841.881L1253.08,841.881Z" style="fill:rgb(255,142,48);fill-rule:nonzero;"/>
            <path d="M1426.72,841.881L1483.86,939.263L1548,939.263L1490.86,841.881L1426.72,841.881Z" style="fill:rgb(255,142,48);fill-rule:nonzero;"/>
            <path d="M1339.9,841.881L1397.04,939.263L1461.18,939.263L1404.04,841.881L1339.9,841.881Z" style="fill:rgb(255,142,48);fill-rule:nonzero;"/>
            <path d="M1079.44,841.881L1136.57,939.263L1200.71,939.263L1143.58,841.881L1079.44,841.881Z" style="fill:rgb(255,142,48);fill-rule:nonzero;"/>
            <path d="M1711.82,729.623L1761.51,816.081L1796.45,765.069L1776.07,729.623L1711.82,729.623Z" style="fill:rgb(255,142,48);fill-rule:nonzero;"/>
            <path d="M235.861,729.623L285.551,816.081L320.485,765.069L300.113,729.623L235.861,729.623Z" style="fill:rgb(255,142,48);fill-rule:nonzero;"/>
            <path d="M409.503,729.623L459.191,816.076L494.128,765.069L473.756,729.623L409.503,729.623Z" style="fill:rgb(255,142,48);fill-rule:nonzero;"/>
            <path d="M496.325,729.623L546.013,816.076L580.949,765.069L560.578,729.623L496.325,729.623Z" style="fill:rgb(255,142,48);fill-rule:nonzero;"/>
            <path d="M149.04,729.623L198.729,816.081L233.663,765.069L213.291,729.623L149.04,729.623Z" style="fill:rgb(255,142,48);fill-rule:nonzero;"/>
            <path d="M583.147,729.623L632.835,816.076L667.771,765.069L647.399,729.623L583.147,729.623Z" style="fill:rgb(255,142,48);fill-rule:nonzero;"/>
            <path d="M440.209,822.317L418.127,783.895L391.812,822.317L440.209,822.317Z" style="fill:rgb(255,142,48);fill-rule:nonzero;"/>
            <path d="M266.566,822.317L244.484,783.897L218.171,822.317L266.566,822.317Z" style="fill:rgb(255,142,48);fill-rule:nonzero;"/>
            <path d="M669.968,729.623L719.656,816.076L754.592,765.069L734.221,729.623L669.968,729.623Z" style="fill:rgb(255,142,48);fill-rule:nonzero;"/>
            <path d="M92.922,822.317L70.841,783.897L44.528,822.317L92.922,822.317Z" style="fill:rgb(255,142,48);fill-rule:nonzero;"/>
            <path d="M179.744,822.317L157.663,783.897L131.35,822.317L179.744,822.317Z" style="fill:rgb(255,142,48);fill-rule:nonzero;"/>
            <path d="M62.218,729.623L111.908,816.081L146.843,765.069L126.47,729.623L62.218,729.623Z" style="fill:rgb(255,142,48);fill-rule:nonzero;"/>
            <path d="M353.388,822.317L331.306,783.897L304.992,822.317L353.388,822.317Z" style="fill:rgb(255,142,48);fill-rule:nonzero;"/>
            <path d="M1364.53,729.623L1414.23,816.081L1449.16,765.069L1428.79,729.623L1364.53,729.623Z" style="fill:rgb(255,142,48);fill-rule:nonzero;"/>
            <path d="M1451.36,729.623L1501.05,816.081L1535.98,765.069L1515.61,729.623L1451.36,729.623Z" style="fill:rgb(255,142,48);fill-rule:nonzero;"/>
            <path d="M1625,729.623L1674.69,816.081L1709.62,765.069L1689.25,729.623L1625,729.623Z" style="fill:rgb(255,142,48);fill-rule:nonzero;"/>
            <path d="M1277.72,729.623L1327.41,816.079L1362.34,765.071L1341.97,729.623L1277.72,729.623Z" style="fill:rgb(255,142,48);fill-rule:nonzero;"/>
            <path d="M1538.18,729.623L1587.87,816.081L1622.8,765.069L1602.43,729.623L1538.18,729.623Z" style="fill:rgb(255,142,48);fill-rule:nonzero;"/>
            <path d="M1017.25,729.623L1066.94,816.079L1101.88,765.069L1081.5,729.623L1017.25,729.623Z" style="fill:rgb(255,142,48);fill-rule:nonzero;"/>
            <path d="M843.609,729.623L893.299,816.079L928.234,765.069L907.861,729.623L843.609,729.623Z" style="fill:rgb(255,142,48);fill-rule:nonzero;"/>
            <path d="M930.43,729.623L980.121,816.079L1015.06,765.069L994.683,729.623L930.43,729.623Z" style="fill:rgb(255,142,48);fill-rule:nonzero;"/>
            <path d="M1459.98,560.24L1482.06,521.82L1433.67,521.82L1459.98,560.24Z" style="fill:rgb(255,142,48);fill-rule:nonzero;"/>
            <path d="M756.789,729.623L806.477,816.076L841.413,765.069L821.04,729.623L756.789,729.623Z" style="fill:rgb(255,142,48);fill-rule:nonzero;"/>
            <path d="M1104.07,729.623L1153.76,816.079L1188.7,765.069L1168.33,729.623L1104.07,729.623Z" style="fill:rgb(255,142,48);fill-rule:nonzero;"/>
            <path d="M322.682,729.623L372.37,816.076L407.306,765.069L386.935,729.623L322.682,729.623Z" style="fill:rgb(255,142,48);fill-rule:nonzero;"/>
            <path d="M2014.49,652.877L2025.29,634.08L1961.04,634.08L1950.24,652.877L2014.49,652.877Z" style="fill:rgb(255,142,48);fill-rule:nonzero;"/>
            <path d="M202.048,710.058L191.674,692.006L127.42,692.006L137.795,710.058L202.048,710.058Z" style="fill:rgb(255,142,48);fill-rule:nonzero;"/>
            <path d="M375.691,710.058L365.316,692.006L301.064,692.006L311.438,710.058L375.691,710.058Z" style="fill:rgb(255,142,48);fill-rule:nonzero;"/>
            <path d="M2100.15,652.877L2100.15,634.08L2047.86,634.08L2037.06,652.877L2100.15,652.877Z" style="fill:rgb(255,142,48);fill-rule:nonzero;"/>
            <path d="M462.513,710.058L452.138,692.006L387.885,692.006L398.259,710.058L462.513,710.058Z" style="fill:rgb(255,142,48);fill-rule:nonzero;"/>
            <path d="M115.227,710.058L104.851,692.006L40.598,692.006L50.973,710.058L115.227,710.058Z" style="fill:rgb(255,142,48);fill-rule:nonzero;"/>
            <path d="M288.869,710.058L278.495,692.006L214.242,692.006L224.617,710.058L288.869,710.058Z" style="fill:rgb(255,142,48);fill-rule:nonzero;"/>
            <path d="M549.334,710.058L538.96,692.006L474.707,692.006L485.081,710.058L549.334,710.058Z" style="fill:rgb(255,142,48);fill-rule:nonzero;"/>
            <path d="M809.795,710.058L799.42,692.006L735.172,692.006L745.546,710.058L809.795,710.058Z" style="fill:rgb(255,142,48);fill-rule:nonzero;"/>
            <path d="M983.437,710.058L973.062,692.006L908.81,692.006L919.185,710.058L983.437,710.058Z" style="fill:rgb(255,142,48);fill-rule:nonzero;"/>
            <path d="M722.977,710.058L712.602,692.006L648.35,692.006L658.724,710.058L722.977,710.058Z" style="fill:rgb(255,142,48);fill-rule:nonzero;"/>
            <path d="M636.155,710.058L625.781,692.006L561.528,692.006L571.903,710.058L636.155,710.058Z" style="fill:rgb(255,142,48);fill-rule:nonzero;"/>
            <path d="M896.617,710.058L886.24,692.006L821.988,692.006L832.363,710.058L896.617,710.058Z" style="fill:rgb(255,142,48);fill-rule:nonzero;"/>
            <path d="M1319.92,652.877L1330.72,634.08L1266.47,634.08L1255.67,652.877L1319.92,652.877Z" style="fill:rgb(255,142,48);fill-rule:nonzero;"/>
            <path d="M1406.74,652.877L1417.54,634.08L1353.29,634.08L1342.49,652.877L1406.74,652.877Z" style="fill:rgb(255,142,48);fill-rule:nonzero;"/>
            <path d="M1233.1,652.877L1243.9,634.08L1179.65,634.08L1168.84,652.877L1233.1,652.877Z" style="fill:rgb(255,142,48);fill-rule:nonzero;"/>
            <path d="M1373.16,560.236L1395.24,521.82L1346.85,521.82L1373.16,560.236Z" style="fill:rgb(255,142,48);fill-rule:nonzero;"/>
            <path d="M972.632,652.877L983.437,634.08L919.184,634.08L908.38,652.877L972.632,652.877Z" style="fill:rgb(255,142,48);fill-rule:nonzero;"/>
            <path d="M1840.85,652.877L1851.65,634.08L1787.4,634.08L1776.59,652.877L1840.85,652.877Z" style="fill:rgb(255,142,48);fill-rule:nonzero;"/>
            <path d="M1754.03,652.877L1764.83,634.08L1700.58,634.08L1689.77,652.877L1754.03,652.877Z" style="fill:rgb(255,142,48);fill-rule:nonzero;"/>
            <path d="M1927.67,652.877L1938.47,634.08L1874.22,634.08L1863.42,652.877L1927.67,652.877Z" style="fill:rgb(255,142,48);fill-rule:nonzero;"/>
            <path d="M1580.38,652.877L1591.19,634.08L1526.93,634.08L1516.13,652.877L1580.38,652.877Z" style="fill:rgb(255,142,48);fill-rule:nonzero;"/>
            <path d="M1493.56,652.877L1504.36,634.08L1440.11,634.08L1429.31,652.877L1493.56,652.877Z" style="fill:rgb(255,142,48);fill-rule:nonzero;"/>
            <path d="M1667.2,652.877L1678.01,634.08L1613.75,634.08L1602.95,652.877L1667.2,652.877Z" style="fill:rgb(255,142,48);fill-rule:nonzero;"/>
            <path d="M1146.28,652.877L1157.08,634.08L1092.83,634.08L1082.02,652.877L1146.28,652.877Z" style="fill:rgb(255,142,48);fill-rule:nonzero;"/>
            <path d="M2041.42,822.317L2089.81,822.317L2067.73,783.895L2041.42,822.317Z" style="fill:rgb(255,142,48);fill-rule:nonzero;"/>
            <path d="M28.405,710.058L18.029,692.006L14.633,692.006L14.633,710.058L28.405,710.058Z" style="fill:rgb(255,142,48);fill-rule:nonzero;"/>
            <path d="M20.817,822.317L60.02,765.069L39.649,729.623L14.633,729.623L14.633,822.317L20.817,822.317Z" style="fill:rgb(255,142,48);fill-rule:nonzero;"/>
            <path d="M17.6,652.877L28.403,634.08L14.633,634.08L14.633,652.877L17.6,652.877Z" style="fill:rgb(255,142,48);fill-rule:nonzero;"/>
            <path d="M101.726,502.256L158.43,405.608L94.288,405.608L37.585,502.256L101.726,502.256Z" style="fill:rgb(255,142,48);fill-rule:nonzero;"/>
            <path d="M39.648,614.515L60.021,579.067L20.817,521.82L14.633,521.82L14.633,614.515L39.648,614.515Z" style="fill:rgb(255,142,48);fill-rule:nonzero;"/>
            <path d="M14.905,502.256L71.608,405.608L14.633,405.608L14.633,502.256L14.905,502.256Z" style="fill:rgb(255,142,48);fill-rule:nonzero;"/>
            <path d="M2100.15,710.058L2100.15,692.006L2037.49,692.006L2047.86,710.058L2100.15,710.058Z" style="fill:rgb(255,142,48);fill-rule:nonzero;"/>
            <path d="M1070.26,710.058L1059.88,692.006L995.631,692.006L1006.01,710.058L1070.26,710.058Z" style="fill:rgb(255,142,48);fill-rule:nonzero;"/>
            <path d="M158.861,939.263L101.726,841.881L37.585,841.881L94.718,939.263L158.861,939.263Z" style="fill:rgb(255,142,48);fill-rule:nonzero;"/>
            <path d="M2034.47,841.881L2091.6,939.263L2100.15,939.263L2100.15,844.496L2098.61,841.881L2034.47,841.881Z" style="fill:rgb(255,142,48);fill-rule:nonzero;"/>
            <path d="M2059.11,729.623L2100.15,801.026L2100.15,729.623L2059.11,729.623Z" style="fill:rgb(255,142,48);fill-rule:nonzero;"/>
            <path d="M14.905,841.881L14.633,841.881L14.633,939.263L72.038,939.263L14.905,841.881Z" style="fill:rgb(255,142,48);fill-rule:nonzero;"/>
            <path d="M1330.72,710.058L1320.35,692.006L1256.1,692.006L1266.47,710.058L1330.72,710.058Z" style="fill:rgb(255,142,48);fill-rule:nonzero;"/>
            <path d="M1504.37,710.058L1493.99,692.006L1429.74,692.006L1440.11,710.058L1504.37,710.058Z" style="fill:rgb(255,142,48);fill-rule:nonzero;"/>
            <path d="M1417.54,710.058L1407.17,692.006L1342.92,692.006L1353.29,710.058L1417.54,710.058Z" style="fill:rgb(255,142,48);fill-rule:nonzero;"/>
            <path d="M1157.08,710.058L1146.71,692.006L1082.45,692.006L1092.83,710.058L1157.08,710.058Z" style="fill:rgb(255,142,48);fill-rule:nonzero;"/>
            <path d="M1243.9,710.058L1233.53,692.006L1169.27,692.006L1179.65,710.058L1243.9,710.058Z" style="fill:rgb(255,142,48);fill-rule:nonzero;"/>
            <path d="M1938.47,710.058L1928.1,692.006L1863.85,692.006L1874.22,710.058L1938.47,710.058Z" style="fill:rgb(255,142,48);fill-rule:nonzero;"/>
            <path d="M2025.29,710.058L2014.92,692.006L1950.67,692.006L1961.04,710.058L2025.29,710.058Z" style="fill:rgb(255,142,48);fill-rule:nonzero;"/>
            <path d="M1851.65,710.058L1841.28,692.006L1777.02,692.006L1787.4,710.058L1851.65,710.058Z" style="fill:rgb(255,142,48);fill-rule:nonzero;"/>
            <path d="M1764.83,710.058L1754.46,692.006L1690.2,692.006L1700.58,710.058L1764.83,710.058Z" style="fill:rgb(255,142,48);fill-rule:nonzero;"/>
            <path d="M1591.19,710.058L1580.81,692.006L1516.56,692.006L1526.93,710.058L1591.19,710.058Z" style="fill:rgb(255,142,48);fill-rule:nonzero;"/>
            <path d="M1678.01,710.058L1667.63,692.006L1603.38,692.006L1613.76,710.058L1678.01,710.058Z" style="fill:rgb(255,142,48);fill-rule:nonzero;"/>
            <path d="M1059.45,652.877L1070.26,634.08L1006.01,634.08L995.201,652.877L1059.45,652.877Z" style="fill:rgb(255,142,48);fill-rule:nonzero;"/>
            <path d="M92.922,521.82L44.53,521.82L70.841,560.24L92.922,521.82Z" style="fill:rgb(255,142,48);fill-rule:nonzero;"/>
            <path d="M126.47,614.515L146.843,579.067L111.908,528.056L62.216,614.515L126.47,614.515Z" style="fill:rgb(255,142,48);fill-rule:nonzero;"/>
            <path d="M213.291,614.515L233.664,579.067L198.729,528.056L149.038,614.515L213.291,614.515Z" style="fill:rgb(255,142,48);fill-rule:nonzero;"/>
            <path d="M157.663,560.24L179.744,521.82L131.352,521.82L157.663,560.24Z" style="fill:rgb(255,142,48);fill-rule:nonzero;"/>
            <path d="M821.039,614.515L841.414,579.067L806.477,528.059L756.789,614.515L821.039,614.515Z" style="fill:rgb(255,142,48);fill-rule:nonzero;"/>
            <path d="M244.484,560.24L266.566,521.82L218.173,521.82L244.484,560.24Z" style="fill:rgb(255,142,48);fill-rule:nonzero;"/>
            <path d="M560.578,614.515L580.949,579.069L546.013,528.059L496.325,614.515L560.578,614.515Z" style="fill:rgb(255,142,48);fill-rule:nonzero;"/>
            <path d="M734.221,614.515L754.592,579.069L719.656,528.059L669.968,614.515L734.221,614.515Z" style="fill:rgb(255,142,48);fill-rule:nonzero;"/>
            <path d="M386.935,614.515L407.306,579.069L372.37,528.059L322.682,614.515L386.935,614.515Z" style="fill:rgb(255,142,48);fill-rule:nonzero;"/>
            <path d="M647.399,614.515L667.771,579.069L632.835,528.059L583.147,614.515L647.399,614.515Z" style="fill:rgb(255,142,48);fill-rule:nonzero;"/>
            <path d="M331.306,560.24L353.388,521.82L304.995,521.82L331.306,560.24Z" style="fill:rgb(255,142,48);fill-rule:nonzero;"/>
            <path d="M473.756,614.515L494.128,579.069L459.191,528.059L409.503,614.515L473.756,614.515Z" style="fill:rgb(255,142,48);fill-rule:nonzero;"/>
            <path d="M885.811,652.877L896.615,634.08L832.363,634.08L821.558,652.877L885.811,652.877Z" style="fill:rgb(255,142,48);fill-rule:nonzero;"/>
            <path d="M418.127,560.24L440.209,521.82L391.812,521.82L418.127,560.24Z" style="fill:rgb(255,142,48);fill-rule:nonzero;"/>
            <path d="M939.056,560.238L961.138,521.82L912.742,521.82L939.056,560.238Z" style="fill:rgb(255,142,48);fill-rule:nonzero;"/>
            <path d="M1112.7,560.238L1134.78,521.82L1086.38,521.82L1112.7,560.238Z" style="fill:rgb(255,142,48);fill-rule:nonzero;"/>
            <path d="M1199.52,560.238L1221.6,521.82L1173.21,521.82L1199.52,560.238Z" style="fill:rgb(255,142,48);fill-rule:nonzero;"/>
            <path d="M1286.34,560.238L1308.42,521.82L1260.03,521.82L1286.34,560.238Z" style="fill:rgb(255,142,48);fill-rule:nonzero;"/>
            <path d="M1025.88,560.238L1047.959,521.82L999.563,521.82L1025.88,560.238Z" style="fill:rgb(255,142,48);fill-rule:nonzero;"/>
            <path d="M591.77,560.24L613.852,521.82L565.456,521.82L591.77,560.24Z" style="fill:rgb(255,142,48);fill-rule:nonzero;"/>
            <path d="M504.949,560.24L527.03,521.82L478.634,521.82L504.949,560.24Z" style="fill:rgb(255,142,48);fill-rule:nonzero;"/>
            <path d="M678.592,560.24L700.674,521.82L652.277,521.82L678.592,560.24Z" style="fill:rgb(255,142,48);fill-rule:nonzero;"/>
            <path d="M852.235,560.238L874.316,521.82L825.92,521.82L852.235,560.238Z" style="fill:rgb(255,142,48);fill-rule:nonzero;"/>
            <path d="M765.414,560.24L787.495,521.82L739.099,521.82L765.414,560.24Z" style="fill:rgb(255,142,48);fill-rule:nonzero;"/>
            <path d="M300.113,614.515L320.486,579.067L285.551,528.056L235.861,614.515L300.113,614.515Z" style="fill:rgb(255,142,48);fill-rule:nonzero;"/>
            <path d="M104.421,652.877L115.225,634.08L50.972,634.08L40.169,652.877L104.421,652.877Z" style="fill:rgb(255,142,48);fill-rule:nonzero;"/>
            <path d="M364.886,652.877L375.69,634.08L311.437,634.08L300.634,652.877L364.886,652.877Z" style="fill:rgb(255,142,48);fill-rule:nonzero;"/>
            <path d="M278.065,652.877L288.869,634.08L224.615,634.08L213.812,652.877L278.065,652.877Z" style="fill:rgb(255,142,48);fill-rule:nonzero;"/>
            <path d="M191.244,652.877L202.047,634.08L137.794,634.08L126.991,652.877L191.244,652.877Z" style="fill:rgb(255,142,48);fill-rule:nonzero;"/>
            <path d="M2100.15,614.515L2100.15,543.11L2059.11,614.515L2100.15,614.515Z" style="fill:rgb(255,142,48);fill-rule:nonzero;"/>
            <path d="M2036.54,614.515L2056.909,579.069L2021.97,528.059L1972.29,614.515L2036.54,614.515Z" style="fill:rgb(255,142,48);fill-rule:nonzero;"/>
            <path d="M1949.72,614.515L1970.09,579.069L1935.15,528.059L1885.46,614.515L1949.72,614.515Z" style="fill:rgb(255,142,48);fill-rule:nonzero;"/>
            <path d="M712.173,652.877L722.975,634.08L658.723,634.08L647.92,652.877L712.173,652.877Z" style="fill:rgb(255,142,48);fill-rule:nonzero;"/>
            <path d="M798.989,652.877L809.793,634.08L745.545,634.08L734.741,652.877L798.989,652.877Z" style="fill:rgb(255,142,48);fill-rule:nonzero;"/>
            <path d="M538.53,652.877L549.333,634.08L485.08,634.08L474.277,652.877L538.53,652.877Z" style="fill:rgb(255,142,48);fill-rule:nonzero;"/>
            <path d="M907.86,614.515L928.235,579.067L893.299,528.059L843.607,614.515L907.86,614.515Z" style="fill:rgb(255,142,48);fill-rule:nonzero;"/>
            <path d="M625.351,652.877L636.154,634.08L571.901,634.08L561.098,652.877L625.351,652.877Z" style="fill:rgb(255,142,48);fill-rule:nonzero;"/>
            <path d="M451.708,652.877L462.511,634.08L398.259,634.08L387.455,652.877L451.708,652.877Z" style="fill:rgb(255,142,48);fill-rule:nonzero;"/>
            <path d="M1168.32,614.515L1188.7,579.067L1153.76,528.059L1104.07,614.515L1168.32,614.515Z" style="fill:rgb(255,142,48);fill-rule:nonzero;"/>
            <path d="M1341.97,614.515L1362.34,579.064L1327.41,528.059L1277.71,614.515L1341.97,614.515Z" style="fill:rgb(255,142,48);fill-rule:nonzero;"/>
            <path d="M1255.15,614.515L1275.52,579.067L1240.58,528.059L1190.89,614.515L1255.15,614.515Z" style="fill:rgb(255,142,48);fill-rule:nonzero;"/>
            <path d="M1081.5,614.515L1101.88,579.067L1066.94,528.059L1017.25,614.515L1081.5,614.515Z" style="fill:rgb(255,142,48);fill-rule:nonzero;"/>
            <path d="M994.682,614.515L1015.06,579.067L980.121,528.059L930.429,614.515L994.682,614.515Z" style="fill:rgb(255,142,48);fill-rule:nonzero;"/>
            <path d="M1515.61,614.515L1535.98,579.067L1501.05,528.056L1451.36,614.515L1515.61,614.515Z" style="fill:rgb(255,142,48);fill-rule:nonzero;"/>
            <path d="M1776.07,614.515L1796.45,579.067L1761.51,528.056L1711.82,614.515L1776.07,614.515Z" style="fill:rgb(255,142,48);fill-rule:nonzero;"/>
            <path d="M1689.25,614.515L1709.63,579.067L1674.69,528.056L1625,614.515L1689.25,614.515Z" style="fill:rgb(255,142,48);fill-rule:nonzero;"/>
            <path d="M1428.79,614.515L1449.16,579.067L1414.23,528.056L1364.53,614.515L1428.79,614.515Z" style="fill:rgb(255,142,48);fill-rule:nonzero;"/>
            <path d="M1862.9,614.515L1883.27,579.067L1848.33,528.056L1798.64,614.515L1862.9,614.515Z" style="fill:rgb(255,142,48);fill-rule:nonzero;"/>
            <path d="M1602.43,614.515L1622.8,579.067L1587.87,528.056L1538.18,614.515L1602.43,614.515Z" style="fill:rgb(255,142,48);fill-rule:nonzero;"/>
        </g>
    </g>
</svg>
